# xmcd
#
# Track frame offsets: 
#        150
#        22405
#        42325
#        56167
#        70987
#        97507
#        110267
#        123232
#        133897
#        151867
#        170437
#        180985
#
# Disc length: 2604 seconds
#
# Revision: 2
# Processed by: cddbd v1.5.2PL0 Copyright (c) Steve Scherf et al.
# Submitted via: ExactAudioCopy v0.95b3
#
DISCID=9c0a2a0c
DTITLE=Big Joe Maher and Jeff Sarli - Mojo
DYEAR=1994
DGENRE=
TTITLE0=Got My Mojo Workin'
TTITLE1=Who Will The Next Fool Be?
TTITLE2=Heartbreaker
TTITLE3=In The Dark
TTITLE4=Vodka On The Rocks
TTITLE5=Hard Livin' Alone
TTITLE6=When Did You Leave Heaven?
TTITLE7=Ponytail
TTITLE8=Trouble In Mind
TTITLE9=Wings 'n Things
TTITLE10=I Dare You, Baby
TTITLE11=Goodbye, Baby
EXTD=Big Joe Maher - vocals, drums\nJeff Sarli - upright bass\nRusty B
EXTD=ogart - electric guitar\nBob Willoughby - piano\nPhil Stancil - B
EXTD=3 organ, piano\nChris Watling - baritone sax\nJerry Queene - teno
EXTD=r sax
EXTT0=
EXTT1=
EXTT2=
EXTT3=
EXTT4=
EXTT5=
EXTT6=
EXTT7=
EXTT8=
EXTT9=
EXTT10=
EXTT11=
PLAYORDER=
